<?xml version="1.0" encoding="utf-8"?>
<!-- Generator: Adobe Illustrator 26.3.1, SVG Export Plug-In . SVG Version: 6.00 Build 0)  -->
<svg version="1.1" id="Layer_1" xmlns="http://www.w3.org/2000/svg" xmlns:xlink="http://www.w3.org/1999/xlink" x="0px" y="0px"
	 viewBox="0 0 128 128" style="enable-background:new 0 0 128 128;" xml:space="preserve">
<style type="text/css">
	.st0{fill:#565656;}
	.st1{fill:#D3D3D3;}
	.st2{fill:#A0A0A0;}
	.st3{fill:#FFFFFF;}
	.st4{fill:#1C1C1C;}
</style>
<g id="Layer_1_00000067952753314375210990000011236072798657459385_">
	<circle class="st0" cx="64" cy="31.8" r="11.5"/>
	<circle class="st0" cx="64" cy="31.8" r="11.5"/>
	<path class="st1" d="M64,46.3c-8,0-14.5-6.5-14.5-14.5S56,17.3,64,17.3c8,0,14.5,6.5,14.5,14.5S72,46.3,64,46.3z"/>
	<circle class="st1" cx="64" cy="31.8" r="11.5"/>
	<path class="st1" d="M64,106c-9.7,0-17.1-2.8-22-8.2c-4.2-4.7-6.4-11.2-6.4-19.3c0-21.8,15.9-49.6,28.3-49.6
		c6.2,0,11.9,6.3,15.6,11.6l1.5,2.2l-2,1.8l-0.4,0.4c-8.5,7.8-14.1,17.9-15.1,27.1h14.2c0.8-3.8,2.9-8.2,6.1-12.2l0.1-0.2l3.5-4.4
		l1.7,5.4c2.7,8.6,6.1,24.6-2,35.7C82.5,102.6,74.7,106,64,106z"/>
	<path class="st1" d="M86.3,61.5c-3.7,4.7-5.8,9.7-5.8,13.3h-20c0-11,6.4-23.2,16.2-32.3c0.1-0.1,0.3-0.2,0.4-0.4
		C72.8,35.9,68,31.8,64,31.8c-16.5,0-47.6,71.1,0,71.1c26.5,0,28.6-22.1,22.4-41.6C86.4,61.4,86.3,61.5,86.3,61.5L86.3,61.5z"/>
</g>
<g id="Layer_7">
	<path class="st2" d="M86.9,62.7c-0.9,8.5-6,32.5-24.9,32.9c-19.3,0.4,13.3,0.7,24.2,0.7C92.2,88.5,90.3,74.3,86.9,62.7z"/>
	<path class="st3" d="M62,22.3c-5.2,0.9-7.3,5.2-7.3,9S62,22.3,62,22.3z"/>
	<path class="st3" d="M54.7,42.4C46.6,53,42.4,64.9,42,78.4S54.7,42.4,54.7,42.4z"/>
	<path class="st2" d="M73.8,37.9c1.1-1.8,1.7-3.8,1.7-6c0-2.3-0.7-4.5-1.9-6.3c-0.5,4.1-1.8,11.9-5.3,12.6c0,0,7,2.7,9.3,4.7l0,0
		C76.4,41,75.1,39.3,73.8,37.9L73.8,37.9z"/>
</g>
<g id="Layer_4">
	<path class="st4" d="M64,20.3c6.3,0,11.5,5.1,11.5,11.5c0,2.2-0.6,4.3-1.7,6c1.1,1.3,2.3,2.7,3.4,4.3c-0.1,0.1-0.3,0.2-0.4,0.4
		c-9.9,9.1-16.2,21.3-16.2,32.3h20c0-3.7,2.1-8.6,5.8-13.3c0.1-0.1,0.1-0.1,0.2-0.2C92.7,80.9,90.6,103,64,103
		c-39.1,0-25.1-47.9-9.8-65.1c-1.1-1.8-1.7-3.8-1.7-6C52.5,25.5,57.7,20.3,64,20.3 M64,14.3c-9.6,0-17.5,7.8-17.5,17.5
		c0,1.7,0.3,3.4,0.8,5.1C37.1,50.4,27.8,75.9,35.5,93C38.8,100.3,46.3,109,64,109c14.5,0,22-6,25.7-11.1c8.8-12.1,5.3-29.2,2.4-38.3
		l-3.4-10.7l-7,8.7c-0.1,0.1-0.1,0.2-0.2,0.2c-2.8,3.6-4.9,7.4-6.1,11h-8.3c1.8-7.5,6.6-15.5,13.6-21.9l0.1-0.1
		c0.1-0.1,0.2-0.2,0.3-0.3l3.9-3.5l-3-4.3c-0.4-0.6-0.9-1.2-1.3-1.8c0.5-1.6,0.8-3.4,0.8-5.1C81.5,22.2,73.7,14.3,64,14.3L64,14.3
		L64,14.3z"/>
</g>
<g id="Layer_3">
	<path class="st1" d="M35.2,101.8h57.5c3.5,0,6.4,2.8,6.4,6.4v7H28.9v-7C28.9,104.7,31.7,101.8,35.2,101.8L35.2,101.8z"/>
</g>
<g id="Layer_6">
	<path class="st2" d="M86.2,115.2h12.9v-7.7c0-3.1-2.8-5.7-6.4-5.7H89C94,101.8,98.5,113,86.2,115.2L86.2,115.2z"/>
	<path class="st3" d="M37.1,104.1h-2.5c-1.6,0-2.9,1.3-2.9,2.9v4.2c2.5-5.6,31.4-7.1,31.4-7.1H37.1L37.1,104.1z"/>
</g>
<g id="Layer_5">
	<path class="st4" d="M92.8,101.8c3.5,0,6.4,2.8,6.4,6.4v7H28.9v-7c0-3.5,2.8-6.4,6.4-6.4H92.8 M92.8,95.8H35.2
		c-6.8,0-12.4,5.5-12.4,12.4v13h82.2v-13C105.1,101.4,99.6,95.8,92.8,95.8L92.8,95.8L92.8,95.8z"/>
</g>
</svg>
