<?xml version="1.0" encoding="utf-8"?>
<!-- Generator: Adobe Illustrator 26.3.1, SVG Export Plug-In . SVG Version: 6.00 Build 0)  -->
<svg version="1.1" id="Layer_1" xmlns="http://www.w3.org/2000/svg" xmlns:xlink="http://www.w3.org/1999/xlink" x="0px" y="0px"
	 viewBox="0 0 128 128" style="enable-background:new 0 0 128 128;" xml:space="preserve">
<style type="text/css">
	.st0{fill:#D3D3D3;}
	.st1{fill:#FFFFFF;}
	.st2{fill:#A0A0A0;}
	.st3{fill:#1C1C1C;}
</style>
<g id="Layer_1_00000070798809214192920430000007429897737713656983_">
	<rect x="32.1" y="87.6" class="st0" width="63.8" height="16.5"/>
</g>
<g id="Layer_7">
	<rect x="56.6" y="13.8" class="st0" width="15" height="44.4"/>
	<rect x="59.6" y="16.8" class="st0" width="9" height="38.4"/>
	<rect x="49.1" y="22.8" class="st0" width="30.1" height="15"/>
	<rect x="52.1" y="25.8" class="st0" width="24.1" height="9"/>
	<path class="st1" d="M66.3,17.9c0,0-4.7,0-5.1,0.7s-0.6,5-0.3,5.3s0.7-3.8,2-3.8S66.3,18,66.3,17.9L66.3,17.9z"/>
	<path class="st1" d="M59.5,27.2c0,0-4.9-0.1-5.9,0.2s1.3,1.5,2.2,1.5S59.2,27.9,59.5,27.2L59.5,27.2z"/>
	<path class="st0" d="M53.1,98.6V65.9c0-16.3,13.3-29.6,29.6-29.6c16.3,0,29.6,13.3,29.6,29.6V69c0,16.3-13.3,29.6-29.6,29.6
		L53.1,98.6z M82.7,76.6c4.2,0,7.6-3.4,7.6-7.6v-3.1c0-4.2-3.4-7.6-7.6-7.6s-7.6,3.4-7.6,7.6v10.7L82.7,76.6z"/>
	<path class="st0" d="M82.7,95.6H56.1V65.9c0-14.7,11.9-26.6,26.6-26.6s26.6,11.9,26.6,26.6V69C109.3,83.7,97.4,95.6,82.7,95.6
		L82.7,95.6z M72.1,79.6h10.6c5.8,0,10.6-4.8,10.6-10.6v-3.1c0-5.8-4.8-10.6-10.6-10.6S72.1,60,72.1,65.9V79.6L72.1,79.6z"/>
	<path class="st0" d="M45.5,98.6c-16.3,0-29.6-13.3-29.6-29.6v-3.1c0-16.3,13.3-29.6,29.6-29.6c16.3,0,29.6,13.3,29.6,29.6v32.7
		l-3,0H45.5z M45.5,58.3c-4.2,0-7.6,3.4-7.6,7.6V69c0,4.2,3.4,7.6,7.6,7.6h7.6V65.9C53.1,61.7,49.7,58.3,45.5,58.3L45.5,58.3z"/>
	<path class="st0" d="M72.1,95.6H45.5c-14.7,0-26.6-11.9-26.6-26.6v-3.1c0-14.7,11.9-26.6,26.6-26.6s26.6,11.9,26.6,26.6V95.6
		L72.1,95.6z M45.5,55.3c-5.8,0-10.6,4.8-10.6,10.6V69c0,5.8,4.8,10.6,10.6,10.6h10.6V65.9C56.1,60,51.4,55.3,45.5,55.3L45.5,55.3z"
		/>
</g>
<g id="Layer_8">
	<path class="st2" d="M103.4,47.3c0,0,13.8,49.9-37.2,50.3l31.1-0.4l6.9-7.8l8.6-15.8l-2.3-17.5L103.4,47.3z"/>
	<path class="st1" d="M43.9,44.9c-9-2.9-21.8,8.2-21.8,24.5s3.4-7.5,10.2-12.2S46.1,45.6,43.9,44.9L43.9,44.9z"/>
</g>
<g id="Layer_9">
	<path class="st3" d="M68.6,16.8v9h7.5v9h-7.5v9.1c4.1-2.6,8.9-4.1,14.1-4.1c14.4,0,26.1,11.7,26.1,26.1V69c0,9.6-5.2,18-12.9,22.5
		v12.5H32.1V91.5C24.5,86.9,19.4,78.6,19.4,69v-3.1c0-14.4,11.7-26.1,26.1-26.1c5.2,0,10,1.5,14.1,4.1v-9.1h-7.5v-9h7.5v-9
		L68.6,16.8 M71.7,80.1h11c6.1,0,11-5,11-11v-3.1c0-6.1-5-11-11-11s-11,5-11,11V80.1 M45.5,80.1h11V65.9c0-6.1-5-11-11-11l0,0
		c-6.1,0-11,5-11,11V69C34.5,75.1,39.4,80.1,45.5,80.1 M74.6,10.8h-21v9h-7.5v13.9c-0.2,0-0.4,0-0.6,0c-17.7,0-32.1,14.4-32.1,32.1
		V69c0,10.1,4.8,19.6,12.8,25.6v15.4H102V94.8c8-6,12.9-15.6,12.9-25.7v-3.1c0-17.7-14.4-32.1-32.1-32.1c-0.2,0-0.4,0-0.6,0V19.8
		h-7.5L74.6,10.8L74.6,10.8L74.6,10.8z M77.7,74.1v-8.2c0-2.8,2.3-5,5-5s5,2.3,5,5V69c0,2.8-2.3,5-5,5H77.7z M45.5,74.1
		c-2.8,0-5-2.3-5-5v-3.1c0-2.8,2.3-5,5-5s5,2.3,5,5v8.2H45.5z"/>
</g>
<g id="Layer_3">
	<path class="st0" d="M25.9,118.2v-11.7c0-5.2,4.2-9.4,9.4-9.4h57.5c5.2,0,9.4,4.2,9.4,9.4v11.7H25.9z"/>
	<path class="st0" d="M35.2,100.2h57.5c3.5,0,6.4,2.8,6.4,6.4v8.7H28.9v-8.7C28.9,103,31.7,100.2,35.2,100.2L35.2,100.2z"/>
</g>
<g id="Layer_6">
	<path class="st2" d="M86.2,115.2h12.9v-8.7c0-3.5-2.8-6.4-6.4-6.4H89C94,100.2,98.5,112.7,86.2,115.2L86.2,115.2z"/>
	<path class="st1" d="M37.3,103.4h-2.5c-1.6,0-2.9,1.3-2.9,2.9v4.2c2.5-5.6,31.4-7.1,31.4-7.1H37.3L37.3,103.4z"/>
</g>
<g id="Layer_4">
	<path class="st3" d="M92.8,100.2c3.5,0,6.4,2.8,6.4,6.4v8.7H28.9v-8.7c0-3.5,2.8-6.4,6.4-6.4H92.8 M92.8,94.2H35.2
		c-6.8,0-12.4,5.5-12.4,12.4v14.7h82.2v-14.7C105.1,99.7,99.6,94.2,92.8,94.2L92.8,94.2L92.8,94.2z"/>
</g>
</svg>
