<?xml version="1.0" encoding="utf-8"?>
<!-- Generator: Adobe Illustrator 26.3.1, SVG Export Plug-In . SVG Version: 6.00 Build 0)  -->
<svg version="1.1" id="Layer_1" xmlns="http://www.w3.org/2000/svg" xmlns:xlink="http://www.w3.org/1999/xlink" x="0px" y="0px"
	 viewBox="0 0 128 128" style="enable-background:new 0 0 128 128;" xml:space="preserve">
<style type="text/css">
	.st0{fill:#D3D3D3;}
	.st1{fill:#A0A0A0;}
	.st2{fill:#FFFFFF;}
	.st3{fill:#1C1C1C;}
</style>
<g id="Layer_2_00000121259991612894633620000015580732102891278513_">
	<path class="st0" d="M90.1,105.2c-6.4-3.4-5.7-15.9-4.9-30.4c0.5-8.7,1-17.6-0.5-21.8c-3.8-11-5.3-14.8-10.9-20.1
		c-0.9-0.9-1.8-1.7-2.6-2.5c-2.1-2-4.8-4.6-6.6-6c-0.2,2.6-0.7,6.6-5,10.8c-2.8,2.7-7.7,5.6-12.9,8.8c-6.1,3.6-13.7,8.2-15.3,11.2
		c-0.7,1.3-0.8,2.8-0.2,4.6c1,2.9,3.3,5.1,4.2,5.7c1.9-0.1,8.3-1.5,12.7-2.5c13.3-2.9,14.3-3,15.9-1.5l1.2,1.2l-0.3,1.5
		c-0.3,2.3-1.3,4.5-11,13.4c-8.5,7.7-13,25.7-13,25.9l-5.8-1.4c0.2-0.8,4.9-20,14.8-28.9c2.6-2.4,4.5-4.2,5.8-5.6
		c-2,0.4-4.3,0.9-6.2,1.3c-11.5,2.5-14,2.9-15.6,2.4c-2.4-0.7-6.2-4.4-7.9-8.7c-1.5-3.6-1.4-7.2,0.3-10.2c2.4-4.5,9.8-8.9,17.5-13.5
		c4.7-2.8,9.5-5.7,11.8-7.9c3-2.9,3.1-5.3,3.3-7.4c0.1-1.7,0.2-3.9,2.3-5.2c3.8-2.3,7.8,1.5,14.4,7.9c0.8,0.8,1.7,1.6,2.6,2.5
		c6.7,6.3,8.5,11.2,12.5,22.5c1.8,5.3,1.3,14.4,0.8,24.1c-0.5,8.7-1.3,23.2,1.7,24.7L90.1,105.2z"/>
	<path class="st0" d="M91.5,102.6c-8.1-4.3,0-39.3-3.9-50.5S82,36.6,75.9,30.8s-11.2-11.3-13.3-10s1,6.4-5.1,12.3
		S32.2,47.3,28.7,53.8s3.6,13.9,5.9,14.6s27.5-6.1,27.2-4.7c-0.2,1.4-0.9,3.2-10.1,11.6c-9.3,8.4-13.9,27.4-13.9,27.4"/>
	<rect x="34.8" y="99.6" class="st0" width="59.7" height="16.3"/>
	<rect x="37.8" y="102.6" class="st0" width="53.7" height="10.3"/>
</g>
<g id="Layer_8">
	<path class="st1" d="M87.6,52.2c-2.8-8.1-4.5-12.7-7.6-16.8c0.1,0.3,4,19.7,3.1,27.4s-5,35.7-17,36.4c-10.2,0.6,15.1,0.6,23,0.6
		C85.2,90.2,91,62,87.6,52.2z"/>
	<path class="st1" d="M61.9,63.7c-0.2,1.1-0.6,2.4-5.2,6.9c6.9-4.1,10.1-11.7,9.3-11.7c-0.6,0-7,3.7-10.1,5.5
		C59.4,63.6,62,63.2,61.9,63.7L61.9,63.7z"/>
	<path class="st2" d="M56.5,36.3C52.6,38.7,37,47.9,34.4,51s16.6-7.4,18.3-8.9S56.5,36.3,56.5,36.3L56.5,36.3z"/>
	<path class="st2" d="M54.2,76.2c-4,3.8-7.2,6.4-8,9.2s4.1-1.5,5.4-3.5S54.2,76.2,54.2,76.2z"/>
	<path class="st3" d="M65.6,46.8L65.6,46.8c1.2-3-0.3-8.1-0.3-8.1c-0.9,1.5-2.8,2.3-4.1,2.7c-0.4,0.1-0.8,0.2-1.2,0.3l0,0l0,0
		c-1.4,0.6-2.3,1.9-2.3,3.5c0,2.1,1.8,3.9,4.1,3.9c0.8,0,1.5-0.2,2.1-0.6l0,0l0.1-0.1l0,0C64.9,48.1,65.3,47.5,65.6,46.8L65.6,46.8z
		"/>
</g>
<g id="Layer_6">
	<path class="st3" d="M63.3,20.6c2.4,0,7,4.9,12.6,10.2C82,36.6,83.7,41,87.6,52.2s-4.2,46.2,3.9,50.5V113H37.8v-10.3
		c0,0,4.7-19,13.9-27.4c9.3-8.4,9.9-10.1,10.1-11.6c0-0.1-0.2-0.2-0.6-0.2c-3.5,0-22.3,5-26.2,5c-0.2,0-0.4,0-0.5-0.1
		c-2.4-0.7-9.3-8.2-5.9-14.6s22.6-14.9,28.7-20.7c6.1-5.9,3.1-11,5.1-12.3C62.8,20.6,63,20.6,63.3,20.6 M63.3,14.6
		c-1.4,0-2.8,0.4-4,1.1c-3.3,2.1-3.5,5.6-3.7,7.5c-0.1,2-0.2,3.4-2.4,5.5c-2.1,2-6.7,4.8-11.2,7.5c-8.2,4.9-15.9,9.5-18.7,14.8
		c-2.1,3.9-2.2,8.4-0.3,12.9c2,4.8,6.2,9.2,9.8,10.3c0.7,0.2,1.4,0.3,2.2,0.3c2,0,5.5-0.7,10.7-1.8c-9,9.8-13.4,26.6-13.8,28.6
		l-0.2,0.7v17h65.7V99l-2.7-1.4c-0.3-0.6-0.9-2.4-1-7.2c-0.1-4.4,0.2-9.8,0.5-15c0.6-10,1.1-19.4-1-25.2c-4.1-11.6-6.1-17-13.2-23.8
		c-0.9-0.8-1.7-1.6-2.5-2.4C71.4,18.1,67.7,14.6,63.3,14.6L63.3,14.6z"/>
</g>
<g id="Layer_4">
	<path class="st0" d="M25.9,118.2v-10c0-5.2,4.2-9.4,9.3-9.4h57.5c5.2,0,9.4,4.2,9.4,9.4v10H25.9z"/>
	<path class="st0" d="M35.2,101.8h57.5c3.5,0,6.4,2.8,6.4,6.4v7H28.9v-7C28.9,104.7,31.7,101.8,35.2,101.8L35.2,101.8z"/>
</g>
<g id="Layer_7">
	<path class="st1" d="M86.2,115.2h12.9v-7.7c0-3.1-2.8-5.7-6.4-5.7H89C94,101.8,98.5,113,86.2,115.2L86.2,115.2z"/>
	<path class="st2" d="M37.1,104.1h-2.5c-1.6,0-2.9,1.3-2.9,2.9v4.2c2.5-5.6,31.4-7.1,31.4-7.1H37.1L37.1,104.1z"/>
</g>
<g id="Layer_5">
	<path class="st3" d="M92.8,101.8c3.5,0,6.4,2.8,6.4,6.4v7H28.9v-7c0-3.5,2.8-6.4,6.4-6.4H92.8 M92.8,95.8H35.2
		c-6.8,0-12.4,5.5-12.4,12.4v13H105v-13C105.1,101.4,99.6,95.8,92.8,95.8L92.8,95.8L92.8,95.8z"/>
</g>
</svg>
