<?xml version="1.0" encoding="utf-8"?>
<!-- Generator: Adobe Illustrator 26.3.1, SVG Export Plug-In . SVG Version: 6.00 Build 0)  -->
<svg version="1.1" id="Layer_1" xmlns="http://www.w3.org/2000/svg" xmlns:xlink="http://www.w3.org/1999/xlink" x="0px" y="0px"
	 viewBox="0 0 128 128" style="enable-background:new 0 0 128 128;" xml:space="preserve">
<style type="text/css">
	.st0{fill:#565656;}
	.st1{fill:#444444;}
	.st2{fill:#6D6D6D;}
	.st3{fill:#1C1C1C;}
</style>
<g id="Layer_2_00000056406092490391965850000013116539289866715033_">
	<path class="st0" d="M35.3,118.2v-3c0-9.1,6.5-16.3,11.8-22c0.9-1,1.7-1.9,2.5-2.8c3.2-3.7,4.2-16.3,4.1-23.3l0-3l20.6,0l0,3
		c-0.1,7.1,0.9,19.6,4.1,23.3c0.8,0.9,1.6,1.8,2.5,2.8c5.3,5.8,11.8,12.9,11.8,22v3H35.3z"/>
	<path class="st0" d="M76.1,92.3C71,86.4,71.2,67,71.2,67H56.8c0,0,0.3,19.4-4.8,25.3c-5.1,5.9-13.6,13.5-13.6,22.9h51.3
		C89.7,105.8,81.2,98.2,76.1,92.3L76.1,92.3z"/>
	<path class="st0" d="M39.1,77.1V66.6c0-5,3.9-9.1,8.9-9.3c-1.2-2.5-1.9-5.3-1.9-8.2c0-10.5,8.5-19,19-19s19,8.5,19,19
		c0,3-0.7,5.9-2,8.6c3.9,1.1,6.8,4.7,6.8,9v10.5H39.1z"/>
	<path class="st0" d="M79.5,60.2h-3c2.8-2.9,4.6-6.8,4.6-11.2c0-8.8-7.1-16-16-16c-8.8,0-16,7.1-16,16c0,4.4,1.8,8.3,4.6,11.2h-5.2
		c-3.5,0-6.4,2.9-6.4,6.4v7.5h43.7v-7.5C85.9,63.1,83,60.2,79.5,60.2z"/>
	<g>
		<path class="st1" d="M81.1,49c0-6.9-4.4-12.9-10.6-15.1c3.4,2.9,5.6,7.3,5.6,12.2c0,6.1-3.4,11.4-8.5,14.1h8.9
			C79.3,57.3,81.1,53.4,81.1,49z"/>
	</g>
</g>
<g id="Layer_4">
	<path class="st2" d="M52.3,49.5c0-7.8,3.5-12.7,10.1-12.7S52.3,49.5,52.3,49.5z"/>
	<path class="st2" d="M50.1,61.6c-2.9,0-6,1.9-6,5.4C44.1,70.5,50.1,61.6,50.1,61.6z"/>
	<path class="st1" d="M75.6,74.1h10.3v-7.5c0-3.5-2.8-6.4-6.4-6.4h-0.6c0,0,3.2,0.6,3.2,5.5C82,69.8,78.5,73.2,75.6,74.1L75.6,74.1z
		"/>
	<path class="st2" d="M40.9,112.4c0.2-1.5,1.2-4.8,3.7-8.2s8.6-10.4,9.7-11.8c0,0,4.7,0,3.1,2.3S40.9,112.4,40.9,112.4L40.9,112.4z"
		/>
	<rect x="54.2" y="74.1" class="st1" width="19.8" height="5.5"/>
	<path class="st1" d="M58.9,79.6c7.7,0,8.1,25.8,30.3,25.8c0,0-18.9-24.1-16.2-27.3S58.9,79.6,58.9,79.6z"/>
</g>
<g id="Layer_2">
	<g>
		<path class="st3" d="M65.1,33c8.8,0,16,7.1,16,16c0,4.4-1.8,8.3-4.6,11.2h3c3.5,0,6.4,2.9,6.4,6.4v7.5H71.5
			c0.4,6.2,1.5,14.6,4.6,18.2h0c5.1,5.9,13.6,13.5,13.6,22.9H38.3c0-9.4,8.5-16.9,13.6-22.9c3.1-3.6,4.2-12,4.6-18.2H42.1v-7.5
			c0-3.5,2.9-6.4,6.4-6.4h5.2c-2.8-2.9-4.6-6.8-4.6-11.2C49.1,40.2,56.3,33,65.1,33 M65.1,27c-12.1,0-22,9.9-22,22
			c0,2.1,0.3,4.1,0.8,6.1c-4.6,1.8-7.8,6.3-7.8,11.5v7.5v6h6h7.7c-0.8,5-1.8,7.5-2.5,8.3c-0.7,0.9-1.6,1.8-2.5,2.8
			c-5.3,5.8-12.6,13.8-12.6,24v6h6h51.3h6v-6c0-10.3-7.3-18.2-12.6-24c-0.9-1-1.7-1.9-2.5-2.8c-0.7-0.8-1.7-3.3-2.5-8.3h7.7h6v-6
			v-7.5c0-4.5-2.4-8.4-5.9-10.6c0.8-2.2,1.1-4.6,1.1-7C87.1,36.9,77.2,27,65.1,27L65.1,27z"/>
	</g>
</g>
</svg>
