<?xml version="1.0" encoding="utf-8"?>
<!-- Generator: Adobe Illustrator 26.3.1, SVG Export Plug-In . SVG Version: 6.00 Build 0)  -->
<svg version="1.1" id="Layer_1" xmlns="http://www.w3.org/2000/svg" xmlns:xlink="http://www.w3.org/1999/xlink" x="0px" y="0px"
	 viewBox="0 0 128 128" style="enable-background:new 0 0 128 128;" xml:space="preserve">
<style type="text/css">
	.st0{fill:#D3D3D3;}
	.st1{fill:#A0A0A0;}
	.st2{fill:#FFFFFF;}
	.st3{fill:#1C1C1C;}
</style>
<g id="Layer_1_00000171687652637915881330000016101074292746082743_">
	<circle class="st0" cx="100.9" cy="52" r="11.1"/>
	<circle class="st0" cx="100.9" cy="52" r="8.1"/>
	<polygon class="st0" points="63,103.1 47.7,91.3 103.9,43.2 108.6,46.8 81.7,103.1 	"/>
	<polygon class="st0" points="79.8,100.1 105.9,45.5 52.5,91.2 64,100.1 	"/>
	<circle class="st0" cx="78.9" cy="32.9" r="11.1"/>
	<circle class="st0" cx="78.9" cy="32.9" r="8.1"/>
	<polygon class="st0" points="63.7,103.1 45.6,99.1 77.9,23.8 83.6,25.1 81.2,103.1 	"/>
	<polygon class="st0" points="78.3,100.1 80.6,25 49.8,96.9 64,100.1 	"/>
	<path class="st0" d="M49.1,44.1c-6.1,0-11.1-5-11.1-11.1s5-11.1,11.1-11.1c6.1,0,11.1,5,11.1,11.1S55.2,44.1,49.1,44.1z"/>
	<circle class="st0" cx="49.1" cy="32.9" r="8.1"/>
	<polygon class="st0" points="46.8,103.1 44.4,25.1 50.1,23.8 82.4,99.1 64.3,103.1 	"/>
	<polygon class="st0" points="64,100.1 78.2,96.9 47.4,25 49.7,100.1 	"/>
	<circle class="st0" cx="27.1" cy="52" r="11.1"/>
	<circle class="st0" cx="27.1" cy="52" r="8.1"/>
	<polygon class="st0" points="46.3,103.1 19.4,46.8 24.1,43.2 80.3,91.3 65,103.1 	"/>
	<polygon class="st0" points="64,100.1 75.5,91.2 22.1,45.5 48.2,100.1 	"/>
</g>
<g id="Layer_6">
	<path class="st1" d="M106.7,57.7c-2.6,2.7-6.7,3.1-9.8,1.4c2.5,0.4,5.2-0.4,7.1-2.3c3.2-3.2,3.1-8.3-0.1-11.5
		c-0.5-0.5-1.1-1-1.7-1.3c1.6,0.2,3.2,1,4.5,2.2C109.8,49.3,109.9,54.5,106.7,57.7L106.7,57.7z"/>
	<path class="st1" d="M85.4,37.7c-2.2,3-3.9,4.2-7.2,2.9c2.5,0,4-2.8,4.8-4.6s1.6-7.5-2.1-10.2c-0.6-0.4-1.3-0.8-1.9-1
		c1.7,0,3.3,0.5,4.7,1.6C87.3,29,88.1,34.1,85.4,37.7L85.4,37.7z"/>
	<path class="st1" d="M78.2,40.6l1.2,24l3.9-26.9C83.3,37.7,82.4,40.7,78.2,40.6L78.2,40.6z"/>
	<path class="st1" d="M53.6,39.7c2.3-1.5,3.7-4.2,3.6-7.1c-0.1-2.3-1.2-4.3-2.8-5.7c0.4,2.9,1.1,9.7-2,12.4l8.4,17.2L53.6,39.7
		L53.6,39.7z"/>
	<path class="st1" d="M33.5,47c-0.5-0.7-1.1-1.3-1.8-1.7c0.8,2.9,2.3,9.4-0.1,11.2l8.1,4.1l0,0l-5.5-4.7
		C35.7,53.1,35.5,49.6,33.5,47z"/>
	<path class="st2" d="M23.9,46.2c-4.1,2.8-3.8,6.8-2.9,8.3S23.9,46.2,23.9,46.2z"/>
	<path class="st2" d="M47,26.8c-4.5,1.8-4.7,5.3-4.4,7.7S47,26.8,47,26.8z"/>
	<path class="st2" d="M75.5,27.3c-3.1,2.3-3.4,5.6-2.7,7S75.5,27.3,75.5,27.3z"/>
	<path class="st1" d="M96.9,59c0,0-16.2,38.6-32.7,38.6c-14,0,9.2,0.6,16.3,0.7L99,59.8c0.7,0.2,1.4,0.2,2.1,0.2l0.5-1
		C101.6,59,98.6,60.3,96.9,59L96.9,59z"/>
</g>
<g id="Layer_7">
	<path class="st3" d="M78.9,24.8c0.3,0,0.7,0,1,0.1c4.5,0.5,7.6,4.6,7.1,9.1c-0.5,3.7-3.3,6.5-6.8,7l-0.9,27.3l14.5-12.4
		c-1.7-3.1-1.2-7,1.4-9.6c1.6-1.6,3.7-2.4,5.8-2.4c2.1,0,4.1,0.8,5.7,2.3c3.2,3.2,3.2,8.3,0.1,11.5c-1.6,1.6-3.7,2.4-5.8,2.4
		c-0.6,0-1.3-0.1-1.9-0.2l-19.2,40.2H48.2L29,59.8c-0.6,0.2-1.3,0.2-1.9,0.2c-2.4,0-4.8-1.1-6.4-3.2c-2.7-3.6-2.1-8.7,1.5-11.4
		c1.5-1.1,3.2-1.7,4.9-1.7c2.4,0,4.9,1.1,6.5,3.2c2,2.6,2.2,6.1,0.7,8.8l14.5,12.4L47.9,41c-3.7-0.6-6.7-3.7-6.9-7.6
		c-0.2-4.5,3.3-8.3,7.7-8.5c0.1,0,0.3,0,0.4,0c4.3,0,7.9,3.4,8.1,7.7c0.1,2.9-1.3,5.6-3.6,7.1L64,63.8l10.4-24.1
		c-2.5-1.7-3.9-4.6-3.5-7.7C71.3,27.8,74.8,24.8,78.9,24.8 M78.9,18.8L78.9,18.8c-7.1,0-13.1,5.3-14,12.4c-0.4,3.5,0.5,7,2.4,9.8
		L64,48.6L60.7,41c1.7-2.5,2.6-5.5,2.5-8.7c-0.4-7.5-6.6-13.5-14.1-13.5c-0.2,0-0.4,0-0.7,0c-7.8,0.4-13.8,7-13.4,14.8
		c0.2,4.9,3,9.2,7,11.5l0.3,9.7l-1.2-1c0.5-3.7-0.5-7.4-2.8-10.5c-2.7-3.5-6.8-5.5-11.2-5.5c-3.1,0-6.1,1-8.6,2.9
		c-6.2,4.7-7.4,13.6-2.6,19.8c2.3,3,5.7,4.9,9.4,5.4l17.5,36.7l1.6,3.4h39.1l1.6-3.4L102.7,66c3.1-0.4,6-1.8,8.2-4.1
		c2.7-2.7,4.1-6.2,4.1-10c0-3.8-1.5-7.3-4.2-10c-2.7-2.6-6.2-4.1-9.9-4.1c-3.8,0-7.4,1.5-10,4.2c-3.1,3.1-4.5,7.6-3.9,11.8l-1.2,1
		l0.3-9.8c3.7-2.2,6.3-6,6.9-10.5c0.5-3.7-0.6-7.4-2.9-10.4c-2.3-3-5.7-4.9-9.4-5.3C80,18.8,79.5,18.8,78.9,18.8L78.9,18.8
		L78.9,18.8z"/>
</g>
<g id="Layer_4">
	<path class="st0" d="M25.9,118.2v-11.7c0-5.2,4.2-9.4,9.4-9.4h57.5c5.2,0,9.4,4.2,9.4,9.4v11.7H25.9z"/>
	<path class="st0" d="M35.2,100.2h57.5c3.5,0,6.4,2.8,6.4,6.4v8.7H28.9v-8.7C28.9,103,31.7,100.2,35.2,100.2L35.2,100.2z"/>
</g>
<g id="Layer_5">
	<path class="st1" d="M86.2,115.2h12.9v-8.7c0-3.5-2.8-6.4-6.4-6.4H89C94,100.2,98.5,112.7,86.2,115.2L86.2,115.2z"/>
	<path class="st2" d="M37.1,103.3h-2.5c-1.6,0-2.9,1.3-2.9,2.9v4.2c2.5-5.6,31.4-7.1,31.4-7.1H37.1L37.1,103.3z"/>
</g>
<g id="Layer_3">
	<path class="st3" d="M92.8,100.2c3.5,0,6.4,2.8,6.4,6.4v8.7H28.9v-8.7c0-3.5,2.8-6.4,6.4-6.4H92.8 M92.8,94.2H35.2
		c-6.8,0-12.4,5.5-12.4,12.4v14.7h82.2v-14.7C105.1,99.7,99.6,94.2,92.8,94.2L92.8,94.2L92.8,94.2z"/>
</g>
</svg>
