<?xml version="1.0" encoding="utf-8"?>
<!-- Generator: Adobe Illustrator 26.3.1, SVG Export Plug-In . SVG Version: 6.00 Build 0)  -->
<svg version="1.1" id="Layer_1" xmlns="http://www.w3.org/2000/svg" xmlns:xlink="http://www.w3.org/1999/xlink" x="0px" y="0px"
	 viewBox="0 0 128 128" style="enable-background:new 0 0 128 128;" xml:space="preserve">
<style type="text/css">
	.st0{fill:#D3D3D3;}
	.st1{fill:#A0A0A0;}
	.st2{fill:#FFFFFF;}
	.st3{fill:#1C1C1C;}
</style>
<g id="Layer_1_00000077281858454588395000000005121828388304014258_">
	<path class="st0" d="M36.9,59.3c-5.2,0-9.4-4.2-9.4-9.4V35.1h73v14.8c0,5.2-4.2,9.4-9.4,9.4H36.9z"/>
	<path class="st0" d="M30.5,38.1h67v11.8c0,3.5-2.8,6.4-6.4,6.4H36.9c-3.5,0-6.4-2.8-6.4-6.4L30.5,38.1
		C30.5,38.1,30.5,38.1,30.5,38.1z"/>
	<rect x="39" y="53.3" class="st0" width="50" height="49.9"/>
	<rect x="42" y="56.3" class="st0" width="44" height="43.9"/>
	<rect x="54.8" y="23.2" class="st0" width="18.3" height="23"/>
	<rect x="57.8" y="26.2" class="st0" width="12.3" height="17"/>
	<rect x="27.5" y="23.2" class="st0" width="18.3" height="23"/>
	<rect x="30.5" y="26.2" class="st0" width="12.3" height="17"/>
	<rect x="82.2" y="23.2" class="st0" width="18.3" height="23"/>
	<rect x="85.2" y="26.2" class="st0" width="12.3" height="17"/>
	<path class="st0" d="M25.9,118.2v-11.7c0-5.2,4.2-9.4,9.4-9.4h57.5c5.2,0,9.4,4.2,9.4,9.4v11.7H25.9z"/>
	<path class="st0" d="M35.2,100.2h57.5c3.5,0,6.4,2.8,6.4,6.4v8.7H28.9v-8.7C28.9,103,31.7,100.2,35.2,100.2L35.2,100.2z"/>
</g>
<g id="Layer_3">
	<path class="st1" d="M73,56.3c-5.1,0,8.1,1.6,12.9,2.1v-2.1h5.1c3.5,0,6.4-2.8,6.4-6.4V26.2h-4.7v21C92.8,53.6,79.3,56.3,73,56.3
		L73,56.3z"/>
	<rect x="42" y="60.3" class="st1" width="44" height="5.1"/>
	<path class="st2" d="M39.1,28.4h-6.2c0,0,0,22.7,0,18.7S36.2,28.4,39.1,28.4z"/>
	<path class="st2" d="M67.1,28.5h-6.2c0,0,0,14,0,11.5S64.2,28.5,67.1,28.5z"/>
	<path class="st1" d="M86,97.9V61.5c-8.2,0.5-37.8,2.2-44,3.2v0.5c1.3,0.1,3.7,0.2,7.5,0.2c33,0,30.8,3.2,30.8,30.8L86,97.9z"/>
	<path class="st1" d="M86.2,115.2h12.9v-8.7c0-3.5-2.8-6.4-6.4-6.4H89C94,100.2,98.5,112.7,86.2,115.2L86.2,115.2z"/>
	<path class="st2" d="M37.1,103.3h-2.5c-1.6,0-2.9,1.3-2.9,2.9v4.2c2.5-5.6,31.4-7.1,31.4-7.1H37.1L37.1,103.3z"/>
</g>
<g id="Layer_2_00000014616908797350067350000010402085569058993077_">
	<rect x="36.1" y="59.3" class="st3" width="6" height="35.9"/>
	<rect x="86" y="60.3" class="st3" width="6" height="35.9"/>
	<path class="st3" d="M92.8,100.2c3.5,0,6.4,2.8,6.4,6.4v8.7H28.9v-8.7c0-3.5,2.8-6.4,6.4-6.4H92.8 M92.8,94.2H35.2
		c-6.8,0-12.4,5.5-12.4,12.4v14.7h82.2v-14.7C105.1,99.7,99.6,94.2,92.8,94.2L92.8,94.2L92.8,94.2z"/>
	<path class="st3" d="M97.5,26.2v23.7c0,3.5-2.8,6.4-6.4,6.4H36.9c-3.5,0-6.4-2.8-6.4-6.4V26.2h12.3v11.9h15V26.2h12.3v11.9h15V26.2
		H97.5 M103.5,20.2H79.2v11.9h-3V20.2H51.8v11.9h-3V20.2H24.5v29.7c0,6.8,5.5,12.4,12.4,12.4h54.2c6.8,0,12.4-5.5,12.4-12.4
		L103.5,20.2L103.5,20.2L103.5,20.2z"/>
</g>
</svg>
