<?xml version="1.0" encoding="UTF-8"?><svg xmlns="http://www.w3.org/2000/svg" xmlns:xlink="http://www.w3.org/1999/xlink" viewBox="0 0 128 128"><defs><clipPath id="clippath"><path d="M0,0V128H128V0H0ZM117.717,100.338H58.601l-.43-1.307-.44,1.307H28.42l-.43-1.307-.44,1.307H14.783l8.48-22.278h18.102l.087,.109v-.109H117.597v10.949h.12v11.329Z" fill="none"/></clipPath></defs><g id="Layer_3"><g clip-path="url(#clippath)"><g><rect x="9.267" y="81.92" width="55.942" height="17.609" rx="8.804" ry="8.804" transform="translate(-53.245 52.904) rotate(-45)" fill="#0bd600"/><path d="M38.819,79.211l-19.301,19.301s-1.247,2.548,.813,2.548,18.488-21.849,18.488-21.849Z" fill="#3cea28"/><path d="M58.534,69.428c-3.438-3.438-9.013-3.438-12.451,0l-5.493,5.493c3.391,4.887,7.966,8.889,13.308,11.594l4.636-4.636c3.438-3.438,3.438-9.013,0-12.451h0Z" fill="#0d9302"/><path d="M57.016,70.946h0c-.308-.308-.638-.579-.978-.832,2.569,3.448,2.299,8.343-.831,11.474l-27.105,27.106c-3.13,3.13-8.026,3.401-11.474,.832,.253,.339,.523,.67,.832,.978,3.438,3.438,9.013,3.438,12.451,0l27.106-27.106c3.438-3.438,3.438-9.013,0-12.451Z" fill="#0d9302"/><path d="M45.025,80.162c7.129,7.129,1.939,9.669-1.025,12.633s4.47-2.071,4.47-2.071l5.454-6.905s-16.028-10.786-8.899-3.657Z" fill="#0d9302"/><path d="M72.104,88.265c-19.734,0-35.788-16.054-35.788-35.789S52.37,16.688,72.104,16.688s35.788,16.054,35.788,35.788-16.054,35.789-35.788,35.789Zm0-53.968c-10.024,0-18.18,8.155-18.18,18.18s8.155,18.18,18.18,18.18,18.179-8.156,18.179-18.18-8.155-18.18-18.179-18.18Z" fill="#0bd600"/><path d="M65.202,20.063c-6.614,1.627-18.542,7.265-19.843,13.554s19.843-13.554,19.843-13.554Z" fill="#55ef3f"/><path d="M92.419,53.816s-.434,11.711-9,16.048c0,0,14.035-4.458,9-16.048Z" fill="#55ef3f"/><g><path d="M60.113,66.105c-3.785-3.334-6.189-8.201-6.189-13.629,0-10.024,8.155-18.18,18.18-18.18,3.483,0,6.729,1.002,9.497,2.707-3.204-2.823-7.395-4.551-11.991-4.551-10.024,0-18.18,8.155-18.18,18.18,0,6.541,3.484,12.27,8.683,15.473Z" fill="#0d9302"/><path d="M92.01,22.751c8.155,6.565,13.388,16.621,13.388,27.882,0,19.734-16.054,35.789-35.788,35.789-7.363,0-14.212-2.237-19.907-6.064,6.137,4.941,13.928,7.907,22.401,7.907,19.733,0,35.788-16.054,35.788-35.789,0-12.372-6.311-23.295-15.881-29.725Z" fill="#0d9302"/></g></g></g></g><g id="Layer_9"><g><path d="M26.021,82.06l-5.435,14.278h4.091l.811-2.406h5.035l.791,2.406h4.171l-5.375-14.278h-4.091Zm.523,8.743l1.494-4.43,1.457,4.43h-2.951Z" fill="#f7f7f7"/><polygon points="45.453 89.62 39.437 82.06 36.63 82.06 36.63 96.338 40.64 96.338 40.64 89.029 46.456 96.338 49.464 96.338 49.464 82.06 45.453 82.06 45.453 89.62" fill="#f7f7f7"/><path d="M56.202,82.06l-5.435,14.278h4.091l.811-2.406h5.035l.791,2.406h4.171l-5.375-14.278h-4.091Zm.523,8.743l1.494-4.43,1.457,4.43h-2.951Z" fill="#f7f7f7"/><polygon points="70.822 82.06 66.81 82.06 66.81 96.338 70.079 96.338 70.822 96.338 76.757 96.338 76.757 92.929 70.822 92.929 70.822 82.06" fill="#f7f7f7"/><polygon points="84.92 82.06 82.533 86.495 80.147 82.06 75.534 82.06 80.508 90.631 80.508 96.338 84.519 96.338 84.519 90.464 89.432 82.06 84.92 82.06" fill="#f7f7f7"/><polygon points="89.912 85.368 95.776 85.368 89.592 93.551 89.592 96.338 100.882 96.338 100.882 93.03 94.86 93.03 101.063 84.847 101.063 82.06 89.912 82.06 89.912 85.368" fill="#f7f7f7"/><polygon points="106.819 93.009 106.819 90.683 112.975 90.683 112.975 87.434 106.819 87.434 106.819 85.389 113.597 85.389 113.597 82.06 106.819 82.06 106.056 82.06 102.808 82.06 102.808 96.338 106.056 96.338 106.819 96.338 113.717 96.338 113.717 93.009 106.819 93.009" fill="#f7f7f7"/></g></g></svg>