<?xml version="1.0" encoding="UTF-8"?><svg id="Layer_1" xmlns="http://www.w3.org/2000/svg" viewBox="0 0 386.933 512"><path d="M348.915,49.505l-8.147,4.073c-39.291,19.688-85.54,19.688-124.831,0-29.786-14.936-63.985-18.669-96.317-10.608l-30.561,7.662v-6.103C89.06,19.937,69.123,0,44.53,0h0c-2.315,0-4.589,.177-6.809,.518-1.857-.334-3.767-.518-5.721-.518C14.3,0,0,14.3,0,32V480c0,17.7,14.3,32,32,32,1.954,0,3.864-.184,5.721-.518,2.22,.341,4.494,.518,6.809,.518h0c24.593,0,44.53-19.937,44.53-44.53v-158.85l26.572-6.653c34.878-8.741,71.792-4.667,103.955,11.371,37.509,18.754,81.042,21.045,120.248,6.28l29.447-11.032c10.608-3.989,17.651-14.087,17.651-25.458V73.011c0-19.518-20.536-32.247-38.018-23.506Z" fill="#f0f0f0"/></svg>