<?xml version="1.0" encoding="UTF-8"?><svg id="Layer_1" xmlns="http://www.w3.org/2000/svg" viewBox="0 0 83.902 72.289"><circle cx="30.094" cy="19.471" r="19.471" fill="#f0f0f0"/><path d="M57.293,7.224c-.857,0-1.692,.082-2.515,.204,1.783,3.639,2.787,7.725,2.787,12.043,0,8.112-3.537,15.411-9.146,20.444,2.605,1.539,5.629,2.441,8.874,2.441,9.701,0,17.566-7.864,17.566-17.566s-7.864-17.566-17.566-17.566Z" fill="#f0f0f0"/><path d="M59.5,46.618c-.909,0-1.801,.068-2.684,.165,6.555,6.436,10.813,15.226,11.36,25.062l.025,.444h15.668c.022-.42,.033-.844,.033-1.269,0-13.477-10.925-24.402-24.402-24.402Z" fill="#f0f0f0"/><path d="M60.188,72.289c-.881-15.858-14.016-28.446-30.094-28.446S.881,56.431,0,72.289H60.188Z" fill="#f0f0f0"/></svg>