<?xml version="1.0" encoding="UTF-8"?><svg id="Capa_1" xmlns="http://www.w3.org/2000/svg" viewBox="0 0 132.602 135.294"><path d="M132.602,69.269c0-4.569-.442-9.285-1.179-13.706h-63.814v26.086h36.549c-1.474,8.4-6.337,15.769-13.559,20.485l21.812,16.948c12.822-11.937,20.191-29.328,20.191-49.813h0Z" fill="#4280ef"/><path d="M67.609,135.294c18.275,0,33.602-6.042,44.802-16.359l-21.812-16.801c-6.042,4.127-13.853,6.485-22.991,6.485-17.685,0-32.57-11.937-38.023-27.854L7.185,98.008c11.495,22.843,34.781,37.286,60.424,37.286Z" fill="#34a353"/><path d="M29.586,80.617c-2.8-8.4-2.8-17.538,0-25.938L7.185,37.289c-9.579,19.159-9.579,41.707,0,60.719l22.401-17.39Z" fill="#f6b704"/><path d="M67.609,26.825c9.579-.147,19.011,3.537,25.938,10.169l19.306-19.454C100.621,6.045,84.41-.145,67.609,.003,41.965,.003,18.68,14.445,7.185,37.289l22.401,17.39c5.453-16.064,20.338-27.854,38.023-27.854Z" fill="#e54335"/></svg>