<?xml version="1.0" encoding="UTF-8"?><svg id="Layer_1" xmlns="http://www.w3.org/2000/svg" viewBox="0 0 640 383.963"><path d="M323.4,21.2l-96.8,78.4c-16.1,13-19.2,36.4-7,53.1,12.9,17.8,38,21.3,55.3,7.8l99.3-77.2c7-5.4,17-4.2,22.5,2.8s4.2,17-2.8,22.5l-20.9,16.2,177.2,163.2h41.8c26.5,0,48-21.5,48-48V112c0-26.5-21.5-48-48-48h-80.7l-3.9-2.5L434.8,15c-15.3-9.8-33.2-15-51.4-15-21.8,0-43,7.5-60,21.2Z" fill="#f0f0f0"/><path d="M346.491,165.641l-42.13,32.754c-15.117,11.796-34.078,18.322-53.321,18.322h-.003c-27.712,0-53.954-13.36-70.228-35.746-27.319-37.44-20.455-89.577,15.636-118.718L271.024,1.852c-5.975-1.161-12.076-1.752-18.224-1.752-18.8-.1-37.1,5.5-52.8,15.9l-72,48H48C21.5,64,0,85.5,0,112V240c0,26.5,21.5,48,48,48h108.2l91.4,83.4c19.6,17.9,49.9,16.5,67.8-3.1,5.5-6.1,9.2-13.2,11.1-20.6l17,15.6c19.5,17.9,49.9,16.6,67.8-2.9,4.5-4.9,7.8-10.6,9.9-16.5,19.4,13,45.8,10.3,62.1-7.5,8.623-9.394,12.777-21.317,12.601-33.154l-149.409-137.605Z" fill="#f0f0f0"/></svg>