<?xml version="1.0" encoding="UTF-8"?><svg id="Layer_1" xmlns="http://www.w3.org/2000/svg" viewBox="0 0 568.808 106.6"><g><path d="M150.4,73.966c-2.895,1.142-6.176,1.712-9.844,1.712-3.261,0-6.257-.55-8.988-1.651-2.732-1.101-5.075-2.669-7.031-4.708-1.956-2.037-3.485-4.503-4.585-7.399-1.1-2.892-1.651-6.175-1.651-9.843,0-3.586,.55-6.827,1.651-9.721,1.1-2.893,2.629-5.359,4.585-7.398,1.957-2.036,4.299-3.586,7.031-4.647,2.73-1.059,5.726-1.59,8.988-1.59,3.749,0,7.031,.612,9.844,1.834,2.812,1.223,5.197,2.895,7.153,5.014l16.263-16.386c-4.158-3.749-9.048-6.684-14.674-8.804-5.625-2.119-11.821-3.18-18.587-3.18-6.685,0-12.882,1.122-18.587,3.363-5.707,2.243-10.699,5.361-14.979,9.354-4.28,3.995-7.624,8.724-10.027,14.185-2.406,5.463-3.607,11.455-3.607,17.975,0,6.441,1.201,12.412,3.607,17.915,2.404,5.503,5.767,10.293,10.089,14.368,4.32,4.078,9.354,7.236,15.102,9.477,5.747,2.242,11.963,3.364,18.648,3.364,7.255,0,13.573-1.039,18.954-3.118,5.381-2.079,10.23-4.992,14.551-8.744l-16.386-16.385c-2.121,2.201-4.627,3.873-7.52,5.013Z" fill="#1c1c1c"/><path d="M226.642,38.198c-5.136-2.73-11.006-4.096-17.609-4.096s-12.494,1.366-17.67,4.096c-5.178,2.732-9.232,6.462-12.167,11.189-2.935,4.729-4.402,10.11-4.402,16.141s1.486,11.455,4.463,16.264c2.975,4.811,7.05,8.58,12.229,11.311,5.176,2.731,11.066,4.097,17.669,4.097s12.473-1.366,17.609-4.097,9.171-6.5,12.106-11.311c2.935-4.809,4.402-10.23,4.402-16.264s-1.489-11.412-4.463-16.141c-2.977-4.727-7.031-8.457-12.167-11.189Zm-8.804,33.016c-.816,1.59-1.978,2.813-3.485,3.668-1.509,.856-3.282,1.284-5.319,1.284-1.957,0-3.69-.428-5.197-1.284-1.509-.856-2.69-2.078-3.546-3.668-.856-1.589-1.284-3.402-1.284-5.442,0-2.118,.428-3.973,1.284-5.563,.856-1.59,2.036-2.831,3.546-3.73,1.507-.896,3.24-1.345,5.197-1.345,2.037,0,3.79,.428,5.258,1.284,1.468,.856,2.629,2.079,3.485,3.668,.856,1.59,1.284,3.445,1.284,5.564s-.409,3.974-1.222,5.563Z" fill="#1c1c1c"/><path d="M335.411,37.404c-3.71-2.037-7.969-3.057-12.778-3.057-5.137,0-9.702,1.082-13.696,3.24-1.776,.961-3.369,2.118-4.799,3.449-1.372-1.461-2.928-2.717-4.679-3.754-3.301-1.956-6.991-2.935-11.066-2.935-4.647,0-8.804,.938-12.473,2.813-.948,.485-1.843,1.026-2.69,1.619v-3.209h-23.968v60.163h23.968V61.248c0-1.385,.263-2.567,.795-3.546,.53-.978,1.303-1.731,2.323-2.262,1.019-.53,2.18-.795,3.485-.795,1.875,0,3.424,.592,4.647,1.773,1.223,1.183,1.834,2.793,1.834,4.83v34.484h23.967V61.248c0-1.385,.264-2.567,.795-3.546,.529-.978,1.303-1.731,2.323-2.262,1.018-.53,2.181-.795,3.486-.795,1.873,0,3.423,.592,4.647,1.773,1.221,1.183,1.833,2.793,1.833,4.83v34.484h23.967V60.026c0-5.381-1.06-9.985-3.178-13.818-2.122-3.831-5.036-6.766-8.745-8.804Z" fill="#1c1c1c"/><path d="M369.222,70.175c-3.833,0-7.012,1.305-9.538,3.912-2.528,2.61-3.791,5.83-3.791,9.661,0,3.75,1.263,6.929,3.791,9.538,2.526,2.608,5.705,3.913,9.538,3.913s6.989-1.305,9.477-3.913c2.486-2.608,3.73-5.787,3.73-9.538,0-3.831-1.244-7.051-3.73-9.661-2.488-2.607-5.646-3.912-9.477-3.912Z" fill="#1c1c1c"/><path d="M410.797,83.839c-.803,.378-1.817,.566-3.044,.566-1.086,0-2.101-.259-3.044-.778-.945-.519-1.7-1.239-2.266-2.159-.567-.921-.85-1.993-.85-3.221s.283-2.289,.85-3.187c.566-.896,1.309-1.592,2.23-2.089,.92-.495,1.946-.743,3.08-.743,1.085,0,2.005,.141,2.76,.424,.755,.284,1.439,.708,2.053,1.275l8.708-8.708c-1.888-1.745-3.929-3.044-6.124-3.894s-4.661-1.275-7.398-1.275c-3.823,0-7.257,.791-10.301,2.372-3.044,1.583-5.451,3.752-7.22,6.513-1.77,2.761-2.655,5.911-2.655,9.452,0,3.493,.873,6.619,2.62,9.38,1.745,2.76,4.129,4.92,7.15,6.477,3.02,1.559,6.418,2.337,10.194,2.337,2.926,0,5.497-.46,7.717-1.381,2.218-.921,4.341-2.324,6.371-4.212l-8.708-8.708c-.614,.661-1.322,1.181-2.123,1.558Z" fill="#1c1c1c"/><path d="M454.406,61.857c-2.078-1.108-4.532-1.663-7.363-1.663-2.738,0-5.133,.543-7.186,1.628-.412,.218-.792,.469-1.168,.725v-18.635h-13.876v51.822h13.876v-19.539c0-.897,.177-1.664,.531-2.301s.85-1.121,1.486-1.451,1.357-.495,2.159-.495c1.179,0,2.16,.366,2.938,1.097,.779,.732,1.168,1.782,1.168,3.151v19.539h13.876v-22.726c0-2.5-.555-4.708-1.664-6.619s-2.702-3.421-4.778-4.53Z" fill="#1c1c1c"/><path d="M499.113,68.476c-1.583-2.643-3.765-4.708-6.549-6.195-2.785-1.486-5.994-2.23-9.628-2.23-3.682,0-6.986,.791-9.912,2.372-2.927,1.583-5.228,3.742-6.903,6.478-1.675,2.738-2.513,5.877-2.513,9.416,0,3.588,.861,6.761,2.584,9.522,1.722,2.761,4.117,4.91,7.186,6.442,3.067,1.534,6.63,2.301,10.69,2.301,3.161,0,5.97-.495,8.424-1.487,2.454-.991,4.555-2.477,6.301-4.459l-6.938-6.867c-1.038,1.181-2.183,2.042-3.434,2.584s-2.702,.814-4.353,.814c-1.699,0-3.115-.33-4.248-.991s-1.994-1.639-2.584-2.938c-.083-.183-.147-.386-.218-.582l23.899-.161c.236-1.038,.39-1.947,.46-2.726,.071-.779,.107-1.522,.107-2.23,0-3.398-.791-6.418-2.372-9.062Zm-19.575,2.053c1.037-.708,2.265-1.062,3.681-1.062,1.368,0,2.501,.308,3.398,.921,.896,.614,1.568,1.522,2.018,2.726,.109,.292,.203,.607,.286,.939l-11.951,.097c.065-.193,.122-.394,.197-.576,.542-1.321,1.332-2.336,2.372-3.044Z" fill="#1c1c1c"/><path d="M529.765,76.759c-1.204-.85-2.467-1.509-3.788-1.982-1.322-.471-2.584-.85-3.788-1.132-1.204-.284-2.183-.59-2.937-.921-.756-.33-1.133-.754-1.133-1.275,0-.377,.177-.696,.531-.955,.354-.259,.979-.39,1.876-.39,.944,0,2.124,.225,3.54,.673,1.416,.449,2.714,1.335,3.894,2.655l7.363-7.504c-1.699-2.076-3.989-3.634-6.866-4.673-2.88-1.037-5.853-1.558-8.921-1.558-3.021,0-5.675,.508-7.964,1.523-2.29,1.015-4.06,2.383-5.31,4.105-1.251,1.724-1.876,3.694-1.876,5.912,0,2.171,.377,3.953,1.132,5.344,.754,1.393,1.746,2.478,2.974,3.257,1.227,.779,2.513,1.393,3.858,1.84,1.345,.449,2.62,.815,3.823,1.098s2.195,.591,2.973,.92c.779,.331,1.168,.826,1.168,1.487,0,.378-.224,.673-.673,.885-.448,.212-1.074,.318-1.876,.318-1.746,0-3.41-.33-4.99-.992-1.582-.66-2.938-1.557-4.071-2.69l-7.293,7.504c1.275,1.275,2.843,2.407,4.709,3.398,1.864,.991,3.881,1.77,6.053,2.337,2.17,.566,4.342,.85,6.513,.85,4.625,0,8.306-1.016,11.044-3.045,2.737-2.028,4.106-4.766,4.106-8.211,0-2.219-.378-4.023-1.132-5.417-.756-1.391-1.735-2.513-2.938-3.363Z" fill="#1c1c1c"/><path d="M563.251,76.759c-1.204-.85-2.467-1.509-3.788-1.982-1.322-.471-2.584-.85-3.788-1.132-1.204-.284-2.183-.59-2.937-.921-.756-.33-1.133-.754-1.133-1.275,0-.377,.177-.696,.531-.955,.354-.259,.979-.39,1.876-.39,.944,0,2.124,.225,3.54,.673,1.416,.449,2.714,1.335,3.894,2.655l7.363-7.504c-1.699-2.076-3.989-3.634-6.866-4.673-2.88-1.037-5.853-1.558-8.921-1.558-3.021,0-5.675,.508-7.964,1.523-2.29,1.015-4.06,2.383-5.31,4.105-1.251,1.724-1.876,3.694-1.876,5.912,0,2.171,.377,3.953,1.132,5.344,.754,1.393,1.746,2.478,2.974,3.257,1.227,.779,2.513,1.393,3.858,1.84,1.345,.449,2.62,.815,3.823,1.098s2.195,.591,2.973,.92c.779,.331,1.168,.826,1.168,1.487,0,.378-.224,.673-.673,.885-.448,.212-1.074,.318-1.876,.318-1.746,0-3.41-.33-4.99-.992-1.582-.66-2.938-1.557-4.071-2.69l-7.293,7.504c1.275,1.275,2.843,2.407,4.709,3.398,1.864,.991,3.881,1.77,6.053,2.337,2.17,.566,4.342,.85,6.513,.85,4.625,0,8.306-1.016,11.044-3.045,2.737-2.028,4.106-4.766,4.106-8.211,0-2.219-.378-4.023-1.132-5.417-.756-1.391-1.735-2.513-2.938-3.363Z" fill="#1c1c1c"/></g><g><g id="Layer_2"><path d="M68.454,90.7c-6.4-3.4-5.7-15.9-4.9-30.4,.5-8.6,1-17.6-.5-21.7-3.9-11.2-5.4-14.9-11-20.2-.9-.8-1.7-1.7-2.5-2.4-2.1-2.1-4.8-4.7-6.6-6-.2,2.6-.8,6.6-5.1,10.8-2.8,2.6-7.6,5.6-12.8,8.7-6.1,3.7-13.7,8.3-15.4,11.3-.7,1.3-.8,2.8-.2,4.6,1,2.9,3.3,5.1,4.2,5.6,1.9-.1,8.3-1.5,12.7-2.5,13.2-2.9,14.3-3,15.8-1.5l1.2,1.1-.2,1.7c-.4,2.4-1.3,4.5-11.1,13.3-8.5,7.7-13,25.7-13,25.9l-5.8-1.4c.2-.8,5-20,14.8-28.9,2.4-2.2,4.4-4.1,5.8-5.5-2,.4-4.3,.9-6.2,1.3-10.9,2.4-13.9,3-15.6,2.5-2.7-.8-6.3-4.7-7.9-8.6-1.5-3.7-1.5-7.2,.2-10.3,2.4-4.5,9.8-8.9,17.6-13.6,4.6-2.8,9.4-5.7,11.7-7.9,3-2.9,3.2-5.3,3.3-7.4,.1-1.6,.2-3.9,2.3-5.2,3.8-2.4,7.8,1.5,14.5,7.9,.8,.8,1.7,1.6,2.5,2.4,6.6,6.3,8.5,11.2,12.5,22.6,1.8,5.3,1.3,14.4,.8,24-.5,8.7-1.3,23.2,1.7,24.7l-2.8,5.1ZM13.454,50.8h0Z" fill="#565656"/><path d="M69.854,88c-8.1-4.3,0-39.3-3.9-50.5s-5.6-15.5-11.7-21.3-11.2-11.3-13.3-10,1,6.4-5.1,12.3c-6.1,5.9-25.3,14.2-28.8,20.7s3.6,13.9,5.9,14.6,27.5-6.1,27.2-4.7c-.2,1.4-.9,3.2-10.1,11.6-9.3,8.4-13.9,27.4-13.9,27.4" fill="#565656"/><rect x="13.154" y="85" width="59.7" height="16.3" fill="#565656"/><rect x="16.154" y="88" width="53.7" height="10.3" fill="#565656"/></g><g id="Layer_8"><path d="M65.954,37.6c-2.8-8.1-4.5-12.7-7.6-16.8,.1,.3,4,19.7,3.1,27.4-.9,7.7-5,35.7-17,36.4-10.2,.6,15.1,.6,23,.6-3.9-9.6,1.9-37.8-1.5-47.6Z" fill="#444"/><path d="M40.254,49.1c-.2,1.1-.6,2.4-5.2,6.9,6.9-4.1,10.1-11.7,9.3-11.7-.6,0-7,3.7-10.1,5.5,3.5-.8,6.1-1.2,6-.7h0Z" fill="#444"/><path d="M34.854,21.7c-3.9,2.4-19.5,11.6-22.1,14.7s16.6-7.4,18.3-8.9,3.8-5.8,3.8-5.8h0Z" fill="#6d6d6d"/><path d="M32.554,61.6c-4,3.8-7.2,6.4-8,9.2s4.1-1.5,5.4-3.5,2.6-5.7,2.6-5.7Z" fill="#6d6d6d"/><path d="M43.954,32.2h0c1.2-3-.3-8.1-.3-8.1-.9,1.5-2.8,2.3-4.1,2.7l-1.2,.3h0c-1.4,.6-2.3,1.9-2.3,3.5,0,2.1,1.8,3.9,4.1,3.9,.8,0,1.5-.2,2.1-.6h0l.1-.1h0c.9-.3,1.3-.9,1.6-1.6h0Z" fill="#1c1c1c"/></g><g id="Layer_6"><path d="M41.654,6c2.4,0,7,4.9,12.6,10.2,6.1,5.8,7.8,10.2,11.7,21.4s-4.2,46.2,3.9,50.5v10.3H16.154v-10.3s4.7-19,13.9-27.4c9.3-8.4,9.9-10.1,10.1-11.6,0-.1-.2-.2-.6-.2-3.5,0-22.3,5-26.2,5-.2,0-.4,0-.5-.1-2.4-.7-9.3-8.2-5.9-14.6s22.6-14.9,28.7-20.7c6.1-5.9,3.1-11,5.1-12.3,.4-.2,.6-.2,.9-.2m0-6c-1.4,0-2.8,.4-4,1.1-3.3,2.1-3.5,5.6-3.7,7.5-.1,2-.2,3.4-2.4,5.5-2.1,2-6.7,4.8-11.2,7.5C12.154,26.5,4.454,31.1,1.654,36.4c-2.1,3.9-2.2,8.4-.3,12.9,2,4.8,6.2,9.2,9.8,10.3,.7,.2,1.4,.3,2.2,.3,2,0,5.5-.7,10.7-1.8-9,9.8-13.4,26.6-13.8,28.6l-.2,.7v17H75.754v-20l-2.7-1.4c-.3-.6-.9-2.4-1-7.2-.1-4.4,.2-9.8,.5-15,.6-10,1.1-19.4-1-25.2-4.1-11.6-6.1-17-13.2-23.8-.9-.8-1.7-1.6-2.5-2.4C49.754,3.5,46.054,0,41.654,0h0Z" fill="#1c1c1c"/></g><g id="Layer_4"><path d="M4.254,103.6v-10c0-5.2,4.2-9.4,9.4-9.4h57.5c5.2,0,9.4,4.2,9.4,9.4v10H4.254Z" fill="#565656"/><path d="M13.554,87.2h57.5c3.5,0,6.4,2.8,6.4,6.4v7H7.254v-7c0-3.5,2.8-6.4,6.3-6.4h0Z" fill="#565656"/></g><g id="Layer_7"><path d="M64.554,100.6h12.9v-7.7c0-3.1-2.8-5.7-6.4-5.7h-3.7c5,0,9.5,11.2-2.8,13.4h0Z" fill="#444"/><path d="M15.454,89.5h-2.5c-1.6,0-2.9,1.3-2.9,2.9v4.2c2.5-5.6,31.4-7.1,31.4-7.1H15.454Z" fill="#6d6d6d"/></g><g id="Layer_5"><path d="M71.154,87.2c3.5,0,6.4,2.8,6.4,6.4v7H7.254v-7c0-3.5,2.8-6.4,6.4-6.4h57.5m0-6H13.554c-6.8,0-12.4,5.5-12.4,12.4v13H83.354v-13c.1-6.8-5.4-12.4-12.2-12.4h0Z" fill="#1c1c1c"/></g></g></svg>