<?xml version="1.0" encoding="UTF-8"?><svg id="Layer_1" xmlns="http://www.w3.org/2000/svg" viewBox="0 0 422.664 92.292"><g><path d="M290.604,72.787c-.671,.316-1.519,.473-2.544,.473-.908,0-1.756-.216-2.544-.65-.79-.433-1.421-1.036-1.894-1.804-.474-.77-.71-1.666-.71-2.692s.236-1.913,.71-2.663c.473-.749,1.094-1.331,1.864-1.746,.769-.414,1.627-.621,2.574-.621,.907,0,1.676,.118,2.307,.355,.631,.237,1.203,.592,1.716,1.065l7.278-7.278c-1.578-1.459-3.284-2.544-5.118-3.254s-3.896-1.065-6.183-1.065c-3.195,0-6.065,.661-8.609,1.982-2.544,1.323-4.556,3.136-6.035,5.444-1.48,2.308-2.219,4.94-2.219,7.899,0,2.92,.729,5.532,2.19,7.84,1.459,2.307,3.451,4.112,5.976,5.413,2.524,1.303,5.364,1.953,8.52,1.953,2.445,0,4.594-.384,6.45-1.154,1.853-.77,3.628-1.943,5.325-3.52l-7.278-7.278c-.513,.552-1.105,.987-1.775,1.302Z" fill="#d3d3d3"/><path d="M327.051,54.415c-1.737-.926-3.787-1.39-6.154-1.39-2.288,0-4.29,.453-6.006,1.36-.344,.182-.662,.392-.976,.606v-15.575h-11.597v43.311h11.597v-16.33c0-.749,.148-1.391,.444-1.923s.71-.937,1.242-1.213,1.134-.414,1.804-.414c.986,0,1.805,.306,2.456,.917,.651,.612,.976,1.489,.976,2.633v16.33h11.597v-18.993c0-2.09-.464-3.934-1.391-5.532s-2.258-2.859-3.993-3.786Z" fill="#d3d3d3"/><path d="M364.415,59.947c-1.323-2.209-3.146-3.934-5.473-5.178-2.328-1.242-5.009-1.864-8.046-1.864-3.077,0-5.839,.661-8.284,1.982-2.446,1.323-4.369,3.127-5.769,5.414-1.4,2.288-2.1,4.911-2.1,7.87,0,2.998,.72,5.65,2.16,7.958,1.439,2.308,3.441,4.103,6.006,5.384,2.563,1.282,5.541,1.923,8.934,1.923,2.642,0,4.989-.414,7.041-1.243,2.051-.828,3.807-2.07,5.266-3.727l-5.798-5.74c-.868,.987-1.824,1.706-2.87,2.16s-2.258,.68-3.638,.68c-1.42,0-2.604-.276-3.55-.828s-1.667-1.37-2.16-2.456c-.07-.153-.123-.323-.182-.486l19.974-.134c.197-.868,.326-1.628,.384-2.278,.06-.651,.089-1.272,.089-1.864,0-2.84-.661-5.364-1.982-7.574Zm-16.36,1.716c.867-.592,1.893-.888,3.076-.888,1.143,0,2.091,.257,2.84,.77,.749,.513,1.311,1.272,1.686,2.278,.091,.244,.17,.507,.239,.785l-9.988,.081c.054-.161,.102-.329,.164-.482,.453-1.104,1.114-1.952,1.982-2.544Z" fill="#d3d3d3"/><path d="M390.033,66.87c-1.006-.71-2.062-1.262-3.166-1.656-1.105-.394-2.16-.71-3.166-.946-1.006-.237-1.824-.493-2.455-.77-.632-.276-.947-.63-.947-1.065,0-.315,.148-.581,.444-.798,.296-.216,.819-.326,1.568-.326,.789,0,1.775,.188,2.958,.562,1.184,.376,2.268,1.115,3.254,2.219l6.154-6.272c-1.42-1.735-3.334-3.037-5.739-3.905-2.407-.867-4.892-1.302-7.456-1.302-2.525,0-4.743,.425-6.656,1.273-1.914,.848-3.393,1.992-4.438,3.431-1.045,1.441-1.568,3.087-1.568,4.941,0,1.815,.315,3.304,.946,4.467,.63,1.164,1.459,2.071,2.485,2.722,1.025,.651,2.1,1.164,3.224,1.538,1.124,.376,2.19,.681,3.195,.917s1.834,.494,2.485,.769c.651,.277,.976,.691,.976,1.243,0,.316-.187,.562-.562,.74-.375,.177-.897,.266-1.568,.266-1.459,0-2.85-.276-4.171-.829-1.322-.552-2.456-1.301-3.402-2.248l-6.095,6.272c1.065,1.065,2.376,2.012,3.935,2.84,1.557,.828,3.244,1.48,5.058,1.953,1.814,.473,3.629,.71,5.444,.71,3.865,0,6.942-.849,9.23-2.545,2.288-1.695,3.432-3.983,3.432-6.863,0-1.854-.316-3.363-.946-4.527-.632-1.163-1.45-2.1-2.456-2.81Z" fill="#d3d3d3"/><path d="M418.019,66.87c-1.006-.71-2.062-1.262-3.166-1.656-1.105-.394-2.16-.71-3.166-.946-1.006-.237-1.824-.493-2.455-.77-.632-.276-.947-.63-.947-1.065,0-.315,.148-.581,.444-.798,.296-.216,.819-.326,1.568-.326,.789,0,1.775,.188,2.958,.562,1.184,.376,2.268,1.115,3.254,2.219l6.154-6.272c-1.42-1.735-3.334-3.037-5.739-3.905-2.407-.867-4.892-1.302-7.456-1.302-2.525,0-4.743,.425-6.656,1.273-1.914,.848-3.393,1.992-4.438,3.431-1.045,1.441-1.568,3.087-1.568,4.941,0,1.815,.315,3.304,.946,4.467,.63,1.164,1.459,2.071,2.485,2.722,1.025,.651,2.1,1.164,3.224,1.538,1.124,.376,2.19,.681,3.195,.917s1.834,.494,2.485,.769c.651,.277,.976,.691,.976,1.243,0,.316-.187,.562-.562,.74-.375,.177-.897,.266-1.568,.266-1.459,0-2.85-.276-4.171-.829-1.322-.552-2.456-1.301-3.402-2.248l-6.095,6.272c1.065,1.065,2.376,2.012,3.935,2.84,1.557,.828,3.244,1.48,5.058,1.953,1.814,.473,3.629,.71,5.444,.71,3.865,0,6.942-.849,9.23-2.545,2.288-1.695,3.432-3.983,3.432-6.863,0-1.854-.316-3.363-.946-4.527-.632-1.163-1.45-2.1-2.456-2.81Z" fill="#d3d3d3"/></g><g><path d="M148.123,38.971c-3.916-2.082-8.391-3.123-13.425-3.123s-9.526,1.041-13.472,3.123c-3.948,2.083-7.039,4.927-9.276,8.531-2.238,3.605-3.356,7.708-3.356,12.306s1.133,8.733,3.403,12.399c2.268,3.668,5.375,6.542,9.323,8.624,3.946,2.082,8.437,3.123,13.471,3.123s9.509-1.041,13.425-3.123,6.992-4.955,9.23-8.624c2.237-3.666,3.356-7.799,3.356-12.399s-1.135-8.701-3.403-12.306c-2.269-3.604-5.36-6.447-9.276-8.531Zm-6.712,25.171c-.622,1.212-1.508,2.144-2.657,2.797-1.151,.652-2.502,.979-4.055,.979-1.492,0-2.813-.327-3.962-.979-1.151-.652-2.051-1.584-2.703-2.797-.653-1.212-.979-2.594-.979-4.149,0-1.615,.326-3.029,.979-4.242,.652-1.212,1.553-2.159,2.703-2.844,1.149-.683,2.471-1.025,3.962-1.025,1.553,0,2.89,.326,4.009,.979,1.119,.652,2.005,1.585,2.657,2.796,.652,1.212,.979,2.627,.979,4.242s-.311,3.03-.932,4.242Z" fill="#d3d3d3"/><path d="M231.048,38.365c-2.829-1.553-6.076-2.331-9.742-2.331-3.916,0-7.397,.825-10.442,2.471-1.354,.733-2.569,1.614-3.659,2.629-1.046-1.114-2.232-2.071-3.567-2.862-2.517-1.491-5.33-2.237-8.437-2.237-3.543,0-6.712,.715-9.509,2.144-.723,.37-1.405,.782-2.051,1.235v-2.447h-18.273v45.868h18.273v-26.291c0-1.056,.201-1.957,.606-2.703,.404-.746,.993-1.32,1.771-1.725,.777-.404,1.662-.606,2.657-.606,1.429,0,2.61,.452,3.543,1.352,.932,.902,1.398,2.13,1.398,3.682v26.291h18.273v-26.291c0-1.056,.201-1.957,.606-2.703,.403-.746,.993-1.32,1.771-1.725,.776-.404,1.663-.606,2.658-.606,1.428,0,2.61,.452,3.543,1.352,.931,.902,1.398,2.13,1.398,3.682v26.291h18.273v-27.223c0-4.102-.808-7.613-2.423-10.535-1.618-2.921-3.84-5.158-6.667-6.712Z" fill="#d3d3d3"/><path d="M256.826,63.35c-2.922,0-5.346,.995-7.271,2.983-1.927,1.99-2.89,4.445-2.89,7.366,0,2.859,.963,5.283,2.89,7.271,1.925,1.989,4.349,2.984,7.271,2.984s5.328-.995,7.225-2.984c1.895-1.989,2.844-4.412,2.844-7.271,0-2.921-.949-5.376-2.844-7.366-1.897-1.988-4.305-2.983-7.225-2.983Z" fill="#d3d3d3"/><path d="M89.995,66.24c-2.207,.871-4.708,1.305-7.505,1.305-2.487,0-4.771-.419-6.852-1.259-2.083-.839-3.869-2.035-5.361-3.589-1.491-1.553-2.657-3.433-3.496-5.641-.839-2.205-1.259-4.708-1.259-7.505,0-2.734,.42-5.205,1.259-7.412,.839-2.205,2.005-4.086,3.496-5.64,1.492-1.553,3.278-2.734,5.361-3.543,2.082-.807,4.366-1.212,6.852-1.212,2.858,0,5.361,.466,7.505,1.398,2.144,.932,3.962,2.207,5.454,3.823l12.399-12.493c-3.17-2.858-6.899-5.096-11.187-6.712-4.289-1.616-9.012-2.424-14.171-2.424-5.097,0-9.821,.855-14.171,2.564-4.351,1.71-8.157,4.087-11.42,7.132-3.263,3.046-5.812,6.651-7.645,10.815-1.834,4.165-2.75,8.733-2.75,13.704,0,4.911,.916,9.463,2.75,13.658,1.832,4.195,4.396,7.847,7.692,10.954,3.294,3.109,7.132,5.517,11.514,7.225,4.382,1.709,9.12,2.564,14.217,2.564,5.531,0,10.348-.792,14.45-2.378,4.102-1.585,7.799-3.806,11.094-6.666l-12.493-12.492c-1.617,1.678-3.528,2.953-5.733,3.822Z" fill="#d3d3d3"/></g><path d="M65.552,88.842c-5.324-2.075-10.068-5.057-14.099-8.861-4.064-3.832-7.272-8.398-9.531-13.568-2.269-5.188-3.419-10.862-3.419-16.86,0-6.067,1.153-11.763,3.429-16.929,2.262-5.14,5.461-9.662,9.507-13.438,.777-.725,1.589-1.411,2.419-2.076-1.471-2.433-3.221-4.553-5.706-6.916C42.053,4.392,36.953-1.108,34.853,.193c-2.1,1.3,1,6.4-5.1,12.3C23.653,18.392,4.453,26.693,.953,33.193s3.6,13.9,5.9,14.6c1.578,.48,13.929-2.568,21.436-4.079l-.136,.079c.846-.193,1.639-.363,2.354-.503,2.206-.394,3.618-.534,3.546-.198-.2,1.4-.9,3.2-10.1,11.6-6.936,6.265-11.256,18.423-13.005,24.2h-3.495c-3.5,0-6.3,2.9-6.3,6.4v7H71.353v-1.646c-1.987-.475-3.924-1.072-5.8-1.804Z" fill="#8a1dff"/></svg>