<?xml version="1.0" encoding="UTF-8"?><svg xmlns="http://www.w3.org/2000/svg" viewBox="0 0 128 128"><g id="Layer_1"><path d="M23.707,93.569c.359,0,.71,.023,1.056,.063v-.063h11.2v6.376l2.427-6.376h32.598l2.058,5.469v-5.469h9.439c1.324,0,2.543,.276,3.621,.822,.415,.21,.79,.463,1.145,.735,.621-.423,1.29-.786,2.014-1.069,1.209-.473,2.531-.713,3.924-.713,.812,0,1.595,.091,2.352,.253v-.029h13.998c.001-.062,.009-.122,.009-.184V43.11c0-4.418-3.582-8-8-8h-1.548v-5.103c0-2.818-2.285-5.103-5.103-5.103h-11.192c-2.818,0-5.103,2.285-5.103,5.103v5.103h-29.205v-5.103c0-2.818-2.285-5.103-5.103-5.103h-11.192c-2.818,0-5.103,2.285-5.103,5.103v5.103h-1.548c-4.418,0-8,3.582-8,8v50.276c0,.062,.008,.122,.009,.184h5.246Zm67.239-11.108c0,3.234-2.622,5.855-5.855,5.855H42.909c-3.234,0-5.855-2.622-5.855-5.855h0c0-3.234,2.622-5.855,5.855-5.855h42.182c3.234,0,5.855,2.622,5.855,5.855h0Zm-9.054-34.283c5.909,0,10.699,4.79,10.699,10.699s-4.79,10.699-10.699,10.699-10.699-4.79-10.699-10.699,4.79-10.699,10.699-10.699Zm-35.786,0c5.909,0,10.699,4.79,10.699,10.699s-4.79,10.699-10.699,10.699-10.699-4.79-10.699-10.699,4.79-10.699,10.699-10.699Z" fill="#707070"/></g><g id="Layer_6"><g><polygon points="72.868 98.566 73.046 99.038 73.046 98.566 72.868 98.566" fill="#444"/><path d="M106.729,90.566c0,1.063-.212,2.075-.588,3.003h3.398c.001-.062,.009-.122,.009-.184V43.11c0-2.933-1.583-5.49-3.937-6.883,.705,1.192,1.117,2.578,1.117,4.063v50.276Z" fill="#444"/><polygon points="35.963 98.566 35.963 99.945 36.488 98.566 35.963 98.566" fill="#444"/></g></g><g id="Layer_2"><path d="M21.944,42.742v44.458s2.494-42.289,2.494-44.458,2.277-2.602,4.229-2.602-6.723-4.771-6.723,2.602Z" fill="#7f7f7f"/><path d="M30.216,30.16l.967,2.728s.869-1.131,.869-2.728,1.676-1.916,3.113-1.916-4.949-3.512-4.949,1.916Z" fill="#7f7f7f"/><path d="M81.099,30.16l.967,2.728s.869-1.131,.869-2.728,1.676-1.916,3.113-1.916-4.949-3.512-4.949,1.916Z" fill="#7f7f7f"/></g><g id="Layer_3"><g><path d="M25.699,98.009c-.592-.293-1.256-.439-1.992-.439h-5.28v11.392h3.2v-4h2.08c.736,0,1.4-.146,1.992-.44,.592-.293,1.062-.717,1.408-1.271s.52-1.216,.52-1.984c0-.778-.173-1.442-.52-1.992-.347-.549-.816-.97-1.408-1.264Zm-1.432,4.032c-.128,.208-.296,.362-.504,.464s-.435,.152-.68,.152h-1.456v-2.784h1.456c.245,0,.472,.051,.68,.152,.208,.101,.376,.256,.504,.464,.128,.208,.192,.467,.192,.775s-.064,.568-.192,.776Z" fill="#f7f7f7"/><polygon points="31.963 97.569 28.763 97.569 28.763 108.961 31.371 108.961 31.963 108.961 36.699 108.961 36.699 106.241 31.963 106.241 31.963 97.569" fill="#f7f7f7"/><path d="M41.147,97.569l-4.336,11.392h3.264l.647-1.92h4.017l.632,1.92h3.328l-4.288-11.392h-3.264Zm.417,6.976l1.192-3.535,1.163,3.535h-2.355Z" fill="#f7f7f7"/><polygon points="54.874 97.569 52.971 101.108 51.067 97.569 47.387 97.569 51.355 104.407 51.355 108.961 54.555 108.961 54.555 104.274 58.475 97.569 54.874 97.569" fill="#f7f7f7"/><path d="M64.954,97.569l-4.336,11.392h3.265l.647-1.92h4.017l.632,1.92h3.328l-4.288-11.392h-3.265Zm.418,6.976l1.191-3.534,1.163,3.534h-2.354Z" fill="#f7f7f7"/><path d="M84.629,102.896c.163-.095,.314-.2,.448-.319,.576-.513,.864-1.174,.864-1.984,0-.586-.144-1.106-.432-1.56s-.691-.811-1.208-1.072c-.518-.262-1.123-.392-1.816-.392h-5.439v11.392h5.248c.789,0,1.479-.142,2.071-.424,.593-.282,1.054-.678,1.385-1.185,.33-.506,.495-1.09,.495-1.752,0-.917-.319-1.669-.96-2.256-.191-.175-.415-.319-.656-.449Zm-3.039-3.023c.341,0,.624,.085,.848,.256s.336,.438,.336,.8-.112,.63-.336,.8c-.224,.171-.507,.257-.848,.257h-1.408v-2.112h1.408Zm1.12,6.456c-.246,.219-.571,.328-.977,.328h-1.552v-2.464h1.552c.277,0,.515,.048,.712,.144s.353,.237,.464,.424c.112,.187,.168,.408,.168,.664,0,.384-.122,.686-.367,.904Z" fill="#f7f7f7"/><path d="M97.621,99.025c-.555-.534-1.208-.947-1.96-1.24-.752-.294-1.575-.44-2.472-.44s-1.72,.146-2.472,.44c-.752,.293-1.406,.706-1.96,1.24-.555,.533-.984,1.157-1.288,1.871-.305,.715-.456,1.499-.456,2.353,0,.843,.154,1.627,.464,2.352,.31,.726,.744,1.355,1.304,1.889,.561,.533,1.216,.949,1.968,1.248,.753,.298,1.576,.447,2.473,.447,.885,0,1.701-.146,2.448-.439,.746-.293,1.396-.709,1.951-1.248s.984-1.168,1.288-1.888c.305-.721,.456-1.502,.456-2.345,0-.853-.151-1.64-.456-2.359-.304-.721-.733-1.347-1.288-1.88Zm-1.872,5.871c-.234,.47-.57,.832-1.008,1.089-.438,.256-.954,.384-1.552,.384-.448,0-.851-.072-1.208-.216-.357-.145-.664-.353-.92-.624-.256-.272-.451-.601-.584-.984-.134-.384-.2-.816-.2-1.296,0-.629,.117-1.176,.353-1.64,.234-.465,.57-.821,1.008-1.072s.954-.376,1.552-.376c.448,0,.851,.072,1.208,.216s.664,.352,.92,.624c.256,.271,.45,.598,.584,.976,.134,.379,.2,.803,.2,1.272,0,.63-.117,1.179-.353,1.647Z" fill="#f7f7f7"/><polygon points="109.573 97.569 106.149 97.569 102.949 97.569 99.541 97.569 99.541 100.289 102.949 100.289 102.949 108.961 106.149 108.961 106.149 100.289 109.573 100.289 109.573 97.569" fill="#f7f7f7"/></g></g></svg>