<?xml version="1.0" encoding="UTF-8"?><svg xmlns="http://www.w3.org/2000/svg" viewBox="0 0 128 128"><g id="Layer_1"><circle cx="51.933" cy="48.712" r="19.471" fill="#707070"/><path d="M79.132,36.465c-2.183,0-4.265,.417-6.193,1.145,1.76,3.316,2.761,7.094,2.761,11.102,0,7.294-3.312,13.821-8.5,18.184,3.134,2.908,7.319,4.701,11.932,4.701,9.701,0,17.566-7.864,17.566-17.566s-7.864-17.566-17.566-17.566Z" fill="#707070"/><path d="M30.305,94.281v3.36l1.279-3.36h49.197c-3.759-12.369-15.25-21.372-28.848-21.372s-25.089,9.003-28.848,21.372h7.221Z" fill="#707070"/><path d="M85.231,94.281h19.645c-3.652-10.713-13.794-18.422-25.743-18.422-1.858,0-3.672,.188-5.425,.542,5.542,4.535,9.642,10.761,11.523,17.879Z" fill="#707070"/></g><g id="Layer_2"><path d="M64.515,33.866c2.88,3.395,4.626,7.782,4.626,12.583,0,10.754-8.718,19.471-19.471,19.471-4.801,0-9.188-1.745-12.583-4.626,3.572,4.21,8.893,6.888,14.846,6.888,10.754,0,19.471-8.718,19.471-19.471,0-5.953-2.679-11.274-6.889-14.846Z" fill="#444"/><path d="M90.368,40.533c2.538,3.046,4.068,6.961,4.068,11.235,0,9.701-7.865,17.566-17.566,17.566-3.444,0-6.647-1-9.355-2.717-.106,.092-.207,.189-.314,.279,3.134,2.908,7.319,4.701,11.932,4.701,9.701,0,17.566-7.864,17.566-17.566,0-5.427-2.464-10.276-6.33-13.498Z" fill="#444"/><path d="M48.722,32.458c-5.034-.115-9.207,5.6-11.324,8s7.255-.36,8.444-2.082,5.138-5.867,2.88-5.919Z" fill="#7f7f7f"/><path d="M43.982,76.874c-3.577,.369-11.047,6.424-12.026,8.475s6.704-.373,8.969-1.725,7.951-7.254,3.057-6.75Z" fill="#7f7f7f"/><path d="M73.497,94.281h7.28c-1.494-4.91-4.203-9.292-7.783-12.788,.614,2.703,2.581,8.08,.503,12.788Z" fill="#444"/><path d="M97.946,94.281h6.933c-1.529-4.482-4.194-8.438-7.653-11.524,.392,2.392,2.336,7.355,.72,11.524Z" fill="#444"/></g><g id="Layer_5"><g><path d="M20.824,98.666c-.518-.257-1.099-.385-1.743-.385h-4.62v9.968h2.8v-3.5h1.82c.644,0,1.225-.128,1.743-.385s.929-.628,1.232-1.113,.455-1.063,.455-1.736c0-.681-.152-1.262-.455-1.742-.303-.481-.714-.85-1.232-1.106Zm-1.253,3.528c-.112,.182-.259,.317-.441,.405-.182,.089-.38,.134-.595,.134h-1.274v-2.437h1.274c.215,0,.413,.045,.595,.133,.182,.089,.329,.225,.441,.406s.168,.408,.168,.679-.056,.497-.168,.68Z" fill="#f7f7f7"/><polygon points="26.305 98.281 23.505 98.281 23.505 108.249 25.787 108.249 26.305 108.249 30.449 108.249 30.449 105.869 26.305 105.869 26.305 98.281" fill="#f7f7f7"/><path d="M34.341,98.281l-3.794,9.968h2.856l.566-1.68h3.515l.553,1.68h2.912l-3.752-9.968h-2.856Zm.365,6.104l1.043-3.092,1.017,3.092h-2.06Z" fill="#f7f7f7"/><polygon points="46.354 98.281 44.688 101.377 43.022 98.281 39.801 98.281 43.274 104.265 43.274 108.249 46.074 108.249 46.074 104.147 49.503 98.281 46.354 98.281" fill="#f7f7f7"/><path d="M55.172,98.281l-3.794,9.968h2.856l.566-1.68h3.515l.553,1.68h2.912l-3.752-9.968h-2.856Zm.365,6.104l1.043-3.092,1.017,3.092h-2.06Z" fill="#f7f7f7"/><polygon points="67.087 98.281 64.819 98.281 64.819 108.249 67.619 108.249 67.619 104.707 71.987 104.707 71.987 102.382 67.619 102.382 67.619 100.605 72.197 100.605 72.197 98.281 67.619 98.281 67.087 98.281" fill="#f7f7f7"/><path d="M79.603,103.895c.542-.253,.964-.603,1.268-1.051,.303-.447,.455-.971,.455-1.567s-.149-1.12-.448-1.568-.71-.798-1.232-1.05-1.129-.378-1.819-.378h-4.41v9.968h2.8v-3.976h.039l2.537,3.976h3.178l-2.932-4.172c.193-.055,.393-.101,.566-.181Zm-2.226-3.599c.383,0,.674,.094,.875,.28,.2,.187,.301,.434,.301,.742s-.101,.555-.301,.741c-.201,.188-.492,.28-.875,.28h-1.162v-2.044h1.162Z" fill="#f7f7f7"/><rect x="82.669" y="98.281" width="2.8" height="9.968" fill="#f7f7f7"/><polygon points="89.921 104.3 94.219 104.3 94.219 102.033 89.921 102.033 89.921 100.605 94.653 100.605 94.653 98.281 89.921 98.281 89.389 98.281 87.121 98.281 87.121 108.249 89.389 108.249 89.921 108.249 94.737 108.249 94.737 105.924 89.921 105.924 89.921 104.3" fill="#f7f7f7"/><polygon points="102.228 103.559 98.027 98.281 96.067 98.281 96.067 108.249 98.867 108.249 98.867 103.147 102.927 108.249 105.027 108.249 105.027 98.281 102.228 98.281 102.228 103.559" fill="#f7f7f7"/><path d="M115.884,101.213c-.267-.611-.642-1.136-1.127-1.575-.485-.438-1.058-.774-1.715-1.008-.658-.233-1.38-.35-2.163-.35h-4.2v9.968h4.228c.774,0,1.489-.116,2.143-.35s1.223-.569,1.708-1.009c.485-.438,.86-.963,1.127-1.574,.266-.611,.398-1.295,.398-2.052s-.133-1.439-.398-2.051Zm-2.766,3.493c-.205,.392-.499,.684-.882,.875s-.835,.287-1.357,.287h-1.4v-5.208h1.4c.522,0,.973,.096,1.351,.287s.672,.479,.882,.86c.21,.383,.315,.864,.315,1.442s-.104,1.064-.309,1.456Z" fill="#f7f7f7"/></g></g></svg>