<?xml version="1.0" encoding="UTF-8"?><svg xmlns="http://www.w3.org/2000/svg" xmlns:xlink="http://www.w3.org/1999/xlink" viewBox="0 0 128 128"><defs><clipPath id="clippath"><path d="M0,0V128H128V0H0ZM94.825,91.917v10.5h-21.757l-1.022-3.107h-.733l-1.048,3.107h-25.178v-7.249c-1.106,.436-2.292,.696-3.548,.76v6.489h-13.178v-26.436h12.544c1.49,0,2.888,.273,4.182,.783v-.783h13.178v14.034h2.763l5.341-14.034h21.201l.692,1.285,.691-1.285h15.187l-9.315,15.936Z" fill="none"/></clipPath></defs><g id="Layer_6"><g clip-path="url(#clippath)"><g><path d="M82.761,85.198c-.999-1.11-1.887-2.109-2.775-3.108-3.552-4.108-4.663-17.984-4.552-25.866v-3.33h-22.869v3.33c.111,7.771-.999,21.759-4.552,25.866-.888,.999-1.776,1.998-2.775,3.108-5.884,6.328-13.1,14.321-13.1,24.423v3.33h63.722v-3.33c0-10.102-7.216-17.984-13.1-24.423Z" fill="#8a1dff"/><path d="M82.983,36.13c0-7.66-4.885-14.321-11.768-16.763,3.774,3.219,6.217,8.104,6.217,13.544,0,6.772-3.774,12.656-9.436,15.653h9.88c3.108-3.219,5.107-7.549,5.107-12.434Z" fill="#444"/><path d="M37.19,106.513c.222-1.665,1.332-5.329,4.108-9.103s9.547-11.545,10.768-13.1c0,0,5.218,0,3.441,2.553s-18.317,19.65-18.317,19.65h0Z" fill="#9d5fff"/><path d="M82.761,85.198c-.999-1.11-1.887-2.109-2.775-3.108-1.93-2.232-3.135-7.352-3.819-12.824-4.821,.133-18.994,3.91-18.994,3.91,8.547,0,11.243,25.557,35.878,25.565-2.641-5.165-6.708-9.624-10.29-13.543Z" fill="#7017e2"/><path d="M76.768,73.177c-.339-1.831-.607-3.777-.809-5.741h-23.922c-.203,1.962-.471,3.908-.81,5.741h25.541Z" fill="#7017e2"/><circle cx="65.221" cy="36.083" r="20.935" fill="#8a1dff"/><path d="M74.106,17.148c3.572,3.755,5.778,8.822,5.778,14.414,0,11.562-9.373,20.935-20.935,20.935-3.181,0-6.184-.73-8.884-2,3.814,4.009,9.187,6.521,15.157,6.521,11.562,0,20.935-9.373,20.935-20.935,0-8.381-4.937-15.591-12.05-18.935Z" fill="#7017e2"/><path d="M80.76,45.67H47.24c-6.01,0-10.883,4.872-10.883,10.883v10.883h55.285v-10.883c0-6.01-4.872-10.883-10.883-10.883Z" fill="#8a1dff"/><path d="M47.403,50.118c-3.219,0-6.661,2.109-6.661,5.995s6.661-5.995,6.661-5.995Z" fill="#9d5fff"/><path d="M49.846,36.685c0-8.659,3.886-14.099,11.212-14.099s-11.212,14.099-11.212,14.099Z" fill="#9d5fff"/><path d="M80.76,45.67h-6.345c5.207,0,13.634,21.765-1.233,21.765h18.461v-10.883c0-6.01-4.872-10.883-10.883-10.883Z" fill="#7017e2"/></g></g></g><g id="Layer_3"><g><path d="M44.128,80.693c-.958-.475-2.033-.712-3.224-.712h-8.544v18.436h5.178v-6.474h3.366c1.191,0,2.266-.236,3.224-.712,.958-.475,1.717-1.16,2.278-2.059,.561-.896,.842-1.968,.842-3.21,0-1.26-.281-2.335-.842-3.224s-1.32-1.571-2.278-2.046Zm-2.317,6.525c-.207,.336-.479,.587-.815,.751-.337,.164-.704,.245-1.101,.245h-2.356v-4.505h2.356c.397,0,.764,.082,1.101,.246,.336,.164,.608,.414,.815,.751,.207,.336,.311,.755,.311,1.256s-.104,.919-.311,1.256Z" fill="#f7f7f7"/><polygon points="54.265 79.981 49.086 79.981 49.086 98.417 53.307 98.417 54.265 98.417 61.929 98.417 61.929 94.015 54.265 94.015 54.265 79.981" fill="#f7f7f7"/><path d="M69.127,79.981l-7.017,18.436h5.282l1.048-3.107h6.5l1.022,3.107h5.386l-6.939-18.436h-5.282Zm.675,11.289l1.929-5.72,1.881,5.72h-3.81Z" fill="#f7f7f7"/><polygon points="97.169 79.981 91.344 79.981 88.262 85.708 85.181 79.981 79.226 79.981 85.647 91.048 85.647 98.417 90.825 98.417 90.825 90.833 97.169 79.981" fill="#f7f7f7"/></g></g></svg>