<?xml version="1.0" encoding="UTF-8"?><svg id="Layer_1" xmlns="http://www.w3.org/2000/svg" viewBox="0 0 561.964 472.075"><path d="M231.982,392.075c-48.523,0-88-39.477-88-88V152.075h24c16.209,0,30.727-9.704,36.985-24.723,6.217-14.922,2.843-32.037-8.628-43.634L132.339,19.718c-7.557-7.557-17.609-11.718-28.307-11.718s-20.75,4.162-28.307,11.718L11.725,83.718C.23,95.214-3.157,112.342,3.097,127.353c6.258,15.019,20.736,24.723,36.885,24.723h24v152c0,92.636,75.365,168,168,168,22.056,0,40-17.944,40-40s-17.944-40-40-40Z" fill="#f0f0f0"/><path d="M558.867,344.723c-6.258-15.019-20.775-24.723-36.984-24.723h-23.9V168C497.982,75.364,422.617,0,329.982,0c-22.056,0-40,17.944-40,40s17.944,40,40,40c48.523,0,88,39.477,88,88v152h-24c-16.209,0-30.727,9.704-36.984,24.723-6.218,14.923-2.843,32.038,8.628,43.635l64,64c7.557,7.557,17.609,11.718,28.308,11.718s20.75-4.161,28.307-11.718l64-64c11.495-11.496,14.882-28.623,8.627-43.635Z" fill="#f0f0f0"/></svg>